<svg width="143" height="26" viewBox="0 0 143 26" fill="none" xmlns="http://www.w3.org/2000/svg">
<path d="M0.462 25V0.689999H9.71L13.45 14.29H13.518L17.258 0.689999H26.574V25H20.148V9.768H20.08L16.034 25H10.832L6.786 9.768H6.718V25H0.462ZM29.4815 25V0.689999H36.5875V25H29.4815ZM38.5569 6.742V0.689999H59.5009V6.742H52.5309V25H45.4249V6.742H38.5569ZM67.2834 25V0.689999H69.5614V22.892H82.5154V25H67.2834ZM91.5167 25.442C86.2467 25.442 83.3227 21.498 83.3227 16.228C83.3227 10.958 86.4847 7.014 91.3467 7.014C96.9907 7.014 98.9287 11.672 98.8947 16.602H85.4987C85.6007 20.546 87.5047 23.64 91.5167 23.64C94.4407 23.64 95.9707 22.076 96.6507 19.696H98.6907C97.9427 23.164 95.4607 25.442 91.5167 25.442ZM85.5327 14.936H96.6847C96.5827 11.468 94.9507 8.748 91.3467 8.748C87.7767 8.748 85.9067 11.434 85.5327 14.936ZM106.266 25.408C103.002 25.408 100.52 23.776 100.52 20.512C100.52 16.33 103.784 15.48 107.762 15.004C111.23 14.596 112.488 14.392 112.488 12.624V12.284C112.488 9.904 110.992 8.748 108.272 8.748C105.144 8.748 103.512 10.04 103.342 12.658H101.268C101.506 9.258 103.75 7.048 108.272 7.048C112.114 7.048 114.494 8.646 114.494 12.488V22.042C114.494 23.096 114.902 23.538 115.65 23.572C115.888 23.572 116.126 23.504 116.432 23.436H116.534V24.966C116.228 25.102 115.786 25.238 115.106 25.238C113.576 25.238 112.624 24.456 112.522 22.756V22.382H112.42C111.434 23.776 109.632 25.408 106.266 25.408ZM106.64 23.708C110.482 23.708 112.522 21.056 112.522 18.642V15.48C111.4 16.092 109.666 16.398 107.966 16.636C105.008 17.044 102.73 17.486 102.73 20.512C102.73 22.96 104.566 23.708 106.64 23.708ZM118.473 25V7.422H120.581V10.686H120.649C121.737 8.646 123.573 7.286 126.021 7.286C126.293 7.286 126.463 7.32 126.599 7.354V9.428C125.341 9.224 123.947 9.496 122.859 10.278C121.499 11.298 120.581 12.93 120.581 15.004V25H118.473ZM128.932 25V7.422H131.04V10.108H131.108C132.298 8.34 134.202 7.048 136.99 7.048C140.254 7.048 142.6 8.986 142.6 12.522V25H140.492V12.726C140.492 10.074 138.962 8.85 136.48 8.85C133.488 8.85 131.04 10.958 131.04 13.848V25H128.932Z" fill="black"/>
</svg>
